<?xml version="1.0" standalone="no"?>
<!DOCTYPE svg PUBLIC "-//W3C//DTD SVG 20010904//EN"
 "http://www.w3.org/TR/2001/REC-SVG-20010904/DTD/svg10.dtd">
<svg version="1.0" xmlns="http://www.w3.org/2000/svg"
 width="228.000000pt" height="124.000000pt" viewBox="0 0 228.000000 124.000000"
 preserveAspectRatio="xMidYMid meet">

<g transform="translate(0.000000,124.000000) scale(0.100000,-0.100000)"
fill="#000000" stroke="none">
<path d="M60 910 l0 -300 30 0 30 0 0 300 0 300 -30 0 -30 0 0 -300z"/>
<path d="M190 910 l0 -300 95 0 c94 0 95 0 95 25 0 23 -4 24 -62 27 l-63 3 -3
273 -2 272 -30 0 -30 0 0 -300z"/>
<path d="M422 913 l3 -298 33 -3 32 -3 0 300 0 301 -35 0 -35 0 2 -297z"/>
<path d="M625 1178 c-25 -143 -85 -531 -85 -548 0 -15 7 -20 29 -20 27 0 29 3
35 50 l7 50 54 0 54 0 6 -37 c10 -60 13 -63 45 -63 29 0 31 2 26 28 -7 32 -86
553 -86 564 0 4 -18 8 -40 8 -36 0 -39 -2 -45 -32z m65 -262 c11 -75 20 -141
20 -147 0 -5 -21 -9 -46 -9 -45 0 -46 1 -41 28 3 15 13 83 23 150 9 67 19 121
20 119 2 -2 13 -65 24 -141z"/>
<path d="M842 913 l3 -298 69 -3 c39 -2 82 2 99 9 50 21 57 54 57 289 0 290
-5 300 -149 300 l-81 0 2 -297z m146 235 c9 -9 12 -76 12 -240 0 -214 -1 -228
-19 -238 -11 -5 -31 -10 -45 -10 l-26 0 0 250 0 250 33 0 c18 0 38 -5 45 -12z"/>
<path d="M1130 910 l0 -300 95 0 95 0 0 -190 0 -190 30 0 c23 0 30 5 30 19 0
11 5 23 12 27 8 5 9 0 6 -14 -4 -12 -2 -22 3 -22 5 0 9 7 9 16 0 11 5 14 16
10 9 -3 20 -6 25 -6 6 0 7 -6 3 -13 -6 -9 -4 -9 7 0 18 17 29 16 29 -2 0 -8
-6 -15 -12 -15 -7 0 -5 -5 5 -11 9 -5 22 -7 27 -4 6 3 10 1 10 -5 0 -6 12 -23
28 -38 15 -15 37 -43 49 -62 19 -30 23 -32 29 -16 6 16 11 14 39 -20 l32 -38
99 2 c122 2 145 4 143 17 -2 13 -74 35 -116 35 -33 0 -61 26 -96 90 -9 17 -26
34 -37 37 -12 3 -28 19 -36 35 -14 27 -14 31 2 49 12 14 20 16 25 8 9 -15 29
-3 29 17 0 11 5 10 22 -6 19 -17 23 -18 31 -5 10 19 37 20 37 1 0 -8 11 -17
25 -20 17 -4 25 -13 25 -28 0 -12 3 -19 6 -15 3 3 30 -19 58 -49 29 -30 58
-54 65 -54 6 0 27 -22 46 -49 32 -44 39 -48 75 -48 28 0 40 4 40 14 0 8 5 11
11 7 17 -10 79 -12 85 -3 2 4 0 10 -6 14 -5 3 -10 17 -10 29 0 25 -22 51 -33
39 -4 -3 -7 3 -7 15 0 16 -6 22 -23 22 -13 0 -32 9 -42 20 -10 11 -24 20 -32
20 -7 0 -18 11 -23 24 -5 13 -18 27 -29 31 -21 6 -25 15 -21 48 1 11 -8 25
-19 33 -11 8 -18 21 -15 29 4 8 1 15 -6 15 -9 0 -10 3 -1 14 9 10 8 16 -4 26
-8 7 -14 20 -13 29 2 10 -7 17 -27 21 -21 4 -30 11 -31 25 0 11 -4 28 -8 37
-9 20 0 38 19 38 9 0 12 6 9 15 -8 19 15 48 32 41 25 -10 35 31 37 149 1 28 5
53 9 56 5 3 3 26 -3 51 -11 40 -10 48 4 63 11 10 17 34 18 63 2 67 0 83 -16
127 -20 59 -43 53 -69 -16 -30 -79 -66 -118 -66 -70 0 11 -9 23 -20 26 -11 3
-20 13 -20 20 0 8 -6 12 -14 9 -9 -4 -16 3 -19 18 l-4 23 -2 -22 c-1 -25 -19
-31 -27 -9 -6 15 -21 16 -42 2 -9 -5 -16 2 -23 22 -6 17 -17 33 -26 36 -13 5
-13 4 -4 -8 6 -7 9 -22 5 -32 -5 -16 -4 -16 5 -4 13 18 15 1 2 -19 -7 -11 -13
-6 -26 19 l-17 32 -19 -21 c-10 -11 -19 -24 -19 -30 0 -12 -29 -23 -42 -15 -7
5 -7 1 0 -11 25 -47 -52 -58 -98 -15 -53 50 -60 47 -60 -25 0 -56 3 -66 25
-83 32 -25 51 -72 30 -72 -9 0 -15 -10 -15 -24 0 -31 -14 -40 -39 -26 -14 7
-27 7 -45 -1 -24 -11 -25 -16 -28 -108 l-3 -96 -62 -3 -63 -3 0 116 0 115 46
0 c44 0 45 1 42 28 -3 24 -7 27 -45 30 l-43 3 0 105 0 104 60 0 c57 0 60 1 60
25 0 25 -1 25 -90 25 l-90 0 0 -300z m300 149 c0 -16 -4 -29 -10 -29 -5 0 -10
16 -10 36 0 21 4 33 10 29 6 -3 10 -19 10 -36z m210 -116 c32 -22 40 -33 39
-58 0 -11 -3 -14 -6 -7 -7 17 -42 15 -49 -2 -3 -8 0 -25 7 -38 10 -20 8 -20
-20 6 -33 32 -42 81 -19 104 16 16 19 15 48 -5z m220 -10 c49 -28 64 -87 32
-117 -15 -13 -24 -14 -50 -5 -59 20 -82 93 -39 122 28 20 24 20 57 0z m-250
-175 c0 -13 -23 -5 -28 10 -2 7 2 10 12 6 9 -3 16 -11 16 -16z m58 -25 c-2
-10 -12 -18 -23 -18 -11 0 -21 8 -23 18 -3 13 3 17 23 17 20 0 26 -4 23 -17z
m242 -33 c-22 -14 -30 -12 -30 8 0 28 12 34 29 17 14 -14 14 -17 1 -25z m-182
2 c3 -16 -2 -22 -17 -22 -24 0 -33 13 -25 35 9 23 38 14 42 -13z m70 -9 c3
-19 -1 -23 -22 -23 -21 0 -26 5 -26 26 0 21 4 25 23 22 14 -2 23 -11 25 -25z
m62 1 c0 -33 -33 -30 -38 4 -3 17 2 22 17 22 16 0 21 -6 21 -26z"/>
<path d="M1831 896 c-18 -22 1 -66 28 -66 29 0 33 27 8 56 -21 24 -24 25 -36
10z"/>
<path d="M1520 1105 c0 -8 4 -15 10 -15 5 0 7 7 4 15 -4 8 -8 15 -10 15 -2 0
-4 -7 -4 -15z"/>
<path d="M76 494 c-21 -21 -21 -111 0 -163 15 -38 15 -41 -8 -71 -19 -26 -23
-44 -23 -105 0 -88 13 -107 71 -106 22 0 63 0 92 1 45 0 52 3 52 20 0 14 -5
18 -17 13 -13 -5 -15 -2 -9 18 4 13 10 45 13 72 4 38 3 47 -10 47 -10 0 -18
-14 -22 -41 -8 -49 -15 -44 -49 39 l-26 62 27 42 c22 33 28 53 28 98 0 34 -6
64 -14 73 -17 22 -84 22 -105 1z m82 -66 c4 -43 -24 -106 -40 -90 -13 13 -23
95 -14 117 3 10 15 15 28 13 19 -2 24 -10 26 -40z m-15 -260 c31 -80 26 -99
-20 -82 -25 8 -28 15 -31 59 -3 52 4 95 16 95 4 0 20 -32 35 -72z"/>
<path d="M390 280 c0 -223 1 -230 20 -230 19 0 20 7 20 105 l0 105 35 0 c28 0
35 4 35 19 0 15 -8 21 -32 23 l-33 3 0 80 0 80 48 3 c39 3 47 6 47 23 0 17 -7
19 -70 19 l-70 0 0 -230z"/>
<path d="M564 497 c-2 -7 -3 -109 -2 -227 3 -214 3 -215 26 -218 l22 -3 0 230
c0 226 0 231 -20 231 -11 0 -23 -6 -26 -13z"/>
<path d="M670 280 l0 -230 70 0 c63 0 70 2 70 19 0 17 -8 20 -47 23 l-48 3 -3
208 c-2 199 -3 207 -22 207 -19 0 -20 -7 -20 -230z"/>
<path d="M840 280 l0 -230 25 0 26 0 -2 141 c0 77 1 142 3 144 2 3 15 -61 27
-140 23 -139 25 -145 47 -145 13 0 24 3 24 8 0 22 50 295 55 300 3 3 5 -65 5
-151 0 -150 1 -157 20 -157 19 0 20 7 20 230 l0 230 -34 0 -33 0 -22 -147
c-36 -231 -34 -231 -65 -30 l-28 177 -34 0 -34 0 0 -230z"/>
<path d="M1164 502 c-22 -14 -34 -52 -34 -107 0 -56 1 -58 60 -119 59 -61 60
-64 60 -118 0 -64 -16 -86 -49 -68 -18 9 -21 20 -21 71 0 57 -1 60 -22 57 -21
-3 -23 -8 -23 -70 0 -82 14 -101 78 -102 70 -2 87 20 87 112 l0 75 -60 59
c-57 55 -60 60 -60 105 0 59 10 76 41 71 21 -3 24 -9 27 -55 3 -49 5 -53 28
-53 22 0 24 3 24 53 0 74 -18 97 -78 97 -26 0 -52 -4 -58 -8z"/>
</g>
</svg>
